<svg xmlns="http://www.w3.org/2000/svg" width="32" height="32" viewBox="0 0 32 32" fill="none">
  <!-- Thermometer bulb (filled red) -->
  <circle cx="16" cy="24" r="6" fill="#FF5A5A"/>
  
  <!-- Thermometer stem -->
  <rect x="14" y="5" width="4" height="19" rx="2" fill="#777777"/>
  
  <!-- Thermometer outline -->
  <path d="M16 30C19.3137 30 22 27.3137 22 24C22 21.7909 20.8031 19.8734 19 18.9356V5C19 3.34315 17.6569 2 16 2C14.3431 2 13 3.34315 13 5V18.9356C11.1969 19.8734 10 21.7909 10 24C10 27.3137 12.6863 30 16 30Z" stroke="#333333" stroke-width="2" stroke-linecap="round"/>
  
  <!-- Temperature markers -->
  <line x1="13" y1="8" x2="16" y2="8" stroke="#333333" stroke-width="1.5" stroke-linecap="round"/>
  <line x1="13" y1="12" x2="16" y2="12" stroke="#333333" stroke-width="1.5" stroke-linecap="round"/>
  <line x1="13" y1="16" x2="16" y2="16" stroke="#333333" stroke-width="1.5" stroke-linecap="round"/>
</svg>